HIERARCHY
ROOT Hips
{
    OFFSET 0.000000 0.000000 0.000000
    CHANNELS 6 Xposition Yposition Zposition Zrotation Xrotation Yrotation
    JOINT Spine
    {
        OFFSET -0.000000 14.517291 0.000000
        CHANNELS 3 Zrotation Xrotation Yrotation
        JOINT Spine1
        {
            OFFSET -0.000000 37.558300 0.000000
            CHANNELS 3 Zrotation Xrotation Yrotation
            JOINT Neck
            {
                OFFSET -0.000000 37.404057 3.400369
                CHANNELS 3 Zrotation Xrotation Yrotation
                JOINT Head
                {
                    OFFSET -0.000000 24.785618 -3.540803
                    CHANNELS 3 Zrotation Xrotation Yrotation
                    End Site
                    {
                        OFFSET -0.000000 35.408028 0.000000
                    }
                }
            }
            JOINT LeftShoulder
            {
                OFFSET 6.992933 33.973492 -0.192664
                CHANNELS 3 Zrotation Xrotation Yrotation
                JOINT LeftArm
                {
                    OFFSET 21.527611 0.000000 0.000000
                    CHANNELS 3 Zrotation Xrotation Yrotation
                    JOINT LeftForeArm
                    {
                        OFFSET 56.353916 0.000000 0.000000
                        CHANNELS 3 Zrotation Xrotation Yrotation
                        JOINT LeftHand
                        {
                            OFFSET 47.774071 0.000000 0.000000
                            CHANNELS 3 Zrotation Xrotation Yrotation
                            End Site
                            {
                                OFFSET 26.556021 0.000000 0.000000
                            }
                        }
                    }
                }
            }
            JOINT RightShoulder
            {
                OFFSET -7.065357 33.973492 -0.192664
                CHANNELS 3 Zrotation Xrotation Yrotation
                JOINT RightArm
                {
                    OFFSET -21.527611 0.000000 0.000000
                    CHANNELS 3 Zrotation Xrotation Yrotation
                    JOINT RightForeArm
                    {
                        OFFSET -56.353916 0.000000 0.000000
                        CHANNELS 3 Zrotation Xrotation Yrotation
                        JOINT RightHand
                        {
                            OFFSET -47.774071 0.000000 0.000000
                            CHANNELS 3 Zrotation Xrotation Yrotation
                            End Site
                            {
                                OFFSET -26.556021 0.000000 0.000000
                            }
                        }
                    }
                }
            }
        }
    }
    JOINT LeftUpLeg
    {
        OFFSET 17.704014 0.000000 0.000000
        CHANNELS 3 Zrotation Xrotation Yrotation
        JOINT LeftLeg
        {
            OFFSET -0.000000 -81.181816 0.000000
            CHANNELS 3 Zrotation Xrotation Yrotation
            JOINT LeftFoot
            {
                OFFSET -0.000000 -62.821102 0.000000
                CHANNELS 3 Zrotation Xrotation Yrotation
                JOINT LeftToeBase
                {
                    OFFSET -0.000000 -11.507608 26.556021
                    CHANNELS 3 Zrotation Xrotation Yrotation
                    End Site
                    {
                        OFFSET -0.000000 0.000000 7.081605
                    }
                }
            }
        }
    }
    JOINT RightUpLeg
    {
        OFFSET -17.704014 0.000000 0.000000
        CHANNELS 3 Zrotation Xrotation Yrotation
        JOINT RightLeg
        {
            OFFSET -0.000000 -81.181816 0.000000
            CHANNELS 3 Zrotation Xrotation Yrotation
            JOINT RightFoot
            {
                OFFSET -0.000000 -62.821102 0.000000
                CHANNELS 3 Zrotation Xrotation Yrotation
                JOINT RightToeBase
                {
                    OFFSET -0.000000 -11.507608 26.556021
                    CHANNELS 3 Zrotation Xrotation Yrotation
                    End Site
                    {
                        OFFSET -0.000000 0.000000 7.081605
                    }
                }
            }
        }
    }
}
MOTION
Frames:    13
Frame Time:    0.008333
15.617256    155.531052    -104.971695    2.442500    -7.929384    45.390808    -2.993811    1.000524    -3.337044    -2.572251    4.635952    -1.016387    -2.983202    1.681900    -17.997034    19.897341    5.059471    -16.471323    8.590991    3.981102    -22.377327    -27.066864    16.593678    -69.238678    -2.442406    -33.980598    -106.064240    -7.039590    -35.961987    -13.401900    -3.524948    4.660879    -2.334127    29.044464    -11.391416    48.666340    -27.658424    -14.491865    58.492325    -11.332083    -2.650821    37.850296    17.956247    -1.460621    -0.653010    -14.068650    35.042995    -18.428331    5.183408    -26.180273    41.534531    0.000000    0.000000    0.000000    -20.258236    -13.269569    -16.387989    14.323490    33.681137    -15.600949    11.075126    2.074267    -18.431221    0.000000    0.000000    0.000000    
15.594451    155.532547    -104.977379    2.431683    -7.925813    45.406364    -2.962965    0.991532    -3.297445    -2.575128    4.627257    -1.003089    -3.023059    1.752659    -18.013863    19.963709    5.025246    -16.473284    8.486343    4.067249    -22.291136    -27.052387    16.951553    -68.193771    -2.760259    -32.475960    -106.422150    -6.735290    -34.875435    -13.691250    -3.505066    4.710837    -2.355894    29.006041    -11.404264    48.656742    -27.656445    -14.531135    58.494728    -11.282554    -2.675839    37.861530    17.968969    -1.488441    -0.651425    -14.071109    35.050522    -18.415098    5.172236    -26.169418    41.507069    0.000000    0.000000    0.000000    -20.252350    -13.280192    -16.389097    14.330998    33.680565    -15.613557    11.070504    2.079541    -18.438576    0.000000    0.000000    0.000000    
15.574151    155.534103    -104.981972    2.421726    -7.928514    45.424217    -2.927958    0.970526    -3.254714    -2.581119    4.646044    -0.987906    -3.082641    1.815875    -18.039684    20.060961    4.998787    -16.480291    8.384815    4.165713    -22.233320    -26.934067    17.330946    -67.207047    -3.186543    -31.196840    -106.822372    -6.721236    -34.139172    -13.555821    -3.523333    4.730078    -2.361812    29.020107    -11.423563    48.610405    -27.637579    -14.530859    58.528488    -11.289000    -2.672199    37.808701    17.982517    -1.513050    -0.650298    -14.060460    35.063770    -18.437883    5.161048    -26.169544    41.509193    0.000000    0.000000    0.000000    -20.241463    -13.280618    -16.400719    14.330816    33.670620    -15.622343    11.083091    2.088062    -18.443356    0.000000    0.000000    0.000000    
15.555247    155.530258    -104.986382    2.419071    -7.926951    45.440479    -2.901064    0.945210    -3.212813    -2.593644    4.683843    -0.972275    -3.117350    1.850105    -18.073221    20.129572    4.988492    -16.503605    8.300513    4.249645    -22.143118    -26.778223    17.715918    -66.302444    -3.511804    -30.004351    -107.109695    -6.628477    -33.377060    -13.659635    -3.548393    4.743996    -2.395621    29.052401    -11.440245    48.599598    -27.606720    -14.524831    58.554596    -11.282118    -2.668891    37.765881    17.992332    -1.532766    -0.662415    -14.075365    35.071102    -18.443438    5.180768    -26.156532    41.524868    0.000000    0.000000    0.000000    -20.242289    -13.287796    -16.408464    14.331542    33.682682    -15.617956    11.087571    2.083965    -18.449493    0.000000    0.000000    0.000000    
15.534263    155.526794    -104.985931    2.411035    -7.938771    45.454762    -2.861774    0.934172    -3.163365    -2.616964    4.698246    -0.954308    -3.154170    1.943456    -18.103247    20.248926    4.916539    -16.508762    8.209968    4.431565    -22.082037    -26.616550    17.986477    -65.414734    -3.817252    -28.792223    -107.317314    -6.767946    -32.552929    -13.803756    -3.544322    4.759450    -2.407592    29.059729    -11.476259    48.559250    -27.584595    -14.515601    58.559700    -11.260610    -2.657892    37.712280    18.016916    -1.545519    -0.664729    -14.081020    35.079624    -18.441948    5.179626    -26.158037    41.512226    0.000000    0.000000    0.000000    -20.225145    -13.285851    -16.410614    14.339628    33.682785    -15.632608    11.073771    2.084978    -18.448860    0.000000    0.000000    0.000000    
15.518585    155.517365    -104.985260    2.421792    -7.946784    45.474556    -2.830876    0.926093    -3.117187    -2.657841    4.729325    -0.936349    -3.175013    1.991615    -18.138590    20.343613    4.895912    -16.531834    8.164720    4.498200    -22.008987    -26.501598    18.364828    -64.557594    -4.204179    -27.642653    -107.584511    -6.512902    -31.950052    -13.714862    -3.547196    4.783411    -2.441174    29.095150    -11.518186    48.545345    -27.591063    -14.440106    58.568233    -11.337251    -2.595851    37.678368    18.024998    -1.547022    -0.688256    -14.096237    35.086067    -18.441774    5.179653    -26.167345    41.514099    0.000000    0.000000    0.000000    -20.232960    -13.274210    -16.418161    14.358628    33.694584    -15.640191    11.067128    2.067866    -18.457371    0.000000    0.000000    0.000000    
15.502655    155.510437    -104.983810    2.428344    -7.957847    45.491291    -2.707943    0.988048    -3.136443    -2.797618    4.699862    -0.937833    -3.267378    1.885886    -18.158407    20.470387    5.043242    -16.551693    8.108517    4.509741    -21.726759    -26.392988    18.791683    -63.764553    -4.691617    -26.423124    -107.887878    -6.291060    -31.413109    -13.595221    -3.614022    4.803872    -2.506948    29.230778    -11.505254    48.655399    -27.605639    -14.411645    58.618778    -11.352255    -2.539174    37.614571    18.032293    -1.549227    -0.685595    -14.085255    35.101681    -18.460461    5.193431    -26.171301    41.519104    0.000000    0.000000    0.000000    -20.233385    -13.264111    -16.431435    14.367826    33.709858    -15.616576    11.051454    2.052948    -18.473495    0.000000    0.000000    0.000000    
15.488203    155.501083    -104.981804    2.439659    -7.970171    45.505623    -2.585012    1.053347    -3.167793    -2.935797    4.686144    -0.943031    -3.384351    1.722373    -18.168358    20.598597    5.243068    -16.565605    8.049818    4.488372    -21.391659    -26.217916    19.276541    -63.048954    -5.159297    -25.355328    -108.205276    -5.951893    -31.042994    -13.096840    -3.700914    4.805299    -2.597983    29.361742    -11.442383    48.808918    -27.648270    -14.420233    58.626785    -11.343753    -2.516227    37.611191    18.038101    -1.545097    -0.679773    -14.068040    35.115509    -18.477077    5.179833    -26.182777    41.495193    0.000000    0.000000    0.000000    -20.236864    -13.250690    -16.422409    14.394855    33.721336    -15.644162    11.045503    2.037364    -18.471085    0.000000    0.000000    0.000000    
15.468743    155.491348    -104.980591    2.444556    -7.973190    45.518948    -2.592785    1.025479    -3.109314    -2.928231    4.700320    -0.923353    -3.363963    1.836998    -18.195919    20.628225    5.179135    -16.586555    7.975318    4.540144    -21.391123    -26.123680    19.674686    -62.177944    -5.602074    -24.276766    -108.358040    -5.648161    -30.609308    -12.881979    -3.689340    4.828361    -2.587403    29.339073    -11.473783    48.736183    -27.666656    -14.389491    58.594265    -11.354036    -2.489436    37.627552    18.044178    -1.558738    -0.665163    -14.060555    35.146687    -18.502239    5.190409    -26.194405    41.497944    0.000000    0.000000    0.000000    -20.238922    -13.251412    -16.434448    14.397731    33.739552    -15.644765    11.037277    2.018556    -18.462374    0.000000    0.000000    0.000000    
15.451556    155.483551    -104.976013    2.446630    -7.981926    45.537682    -2.598775    0.994492    -3.052906    -2.911125    4.711050    -0.904719    -3.347179    1.946805    -18.217077    20.639582    5.136845    -16.605721    7.906073    4.608684    -21.402258    -26.010288    20.049347    -61.329502    -6.054807    -23.207230    -108.481560    -5.020751    -30.239738    -12.492007    -3.678258    4.870354    -2.592679    29.302874    -11.487923    48.689781    -27.702127    -14.382049    58.537502    -11.375518    -2.487733    37.637684    18.057356    -1.567296    -0.674662    -14.060295    35.157349    -18.507784    5.183354    -26.206196    41.495392    0.000000    0.000000    0.000000    -20.236383    -13.243368    -16.446466    14.410244    33.750641    -15.656555    11.030529    1.997970    -18.454182    0.000000    0.000000    0.000000    
15.433443    155.472702    -104.975388    2.441673    -7.983619    45.547928    -2.603657    0.949584    -2.991276    -2.896570    4.733859    -0.883902    -3.339623    2.037070    -18.239285    20.665182    5.106133    -16.624882    7.836649    4.665950    -21.427082    -25.893257    20.458353    -60.492805    -6.475973    -22.247396    -108.591400    -4.644246    -29.909237    -12.266552    -3.664195    4.883185    -2.591794    29.276091    -11.510507    48.625835    -27.697968    -14.371315    58.515427    -11.379651    -2.490031    37.657730    18.070719    -1.590828    -0.677044    -14.072200    35.184711    -18.482702    5.185674    -26.214693    41.471577    0.000000    0.000000    0.000000    -20.237644    -13.252482    -16.449846    14.433051    33.766888    -15.657601    11.026033    1.982934    -18.477253    0.000000    0.000000    0.000000    
15.416485    155.462814    -104.974792    2.435363    -7.988322    45.566288    -2.605044    0.902421    -2.934767    -2.880622    4.763010    -0.864648    -3.340021    2.143110    -18.272345    20.701021    5.055635    -16.650356    7.762712    4.711866    -21.466354    -25.837143    20.787670    -59.636395    -6.902531    -21.189497    -108.657898    -4.232800    -29.497784    -12.010847    -3.652772    4.896721    -2.596966    29.246357    -11.517168    48.571098    -27.724070    -14.382663    58.472866    -11.380098    -2.500240    37.659256    18.085083    -1.616729    -0.690945    -14.079832    35.212658    -18.486975    5.191326    -26.221937    41.479504    0.000000    0.000000    0.000000    -20.233335    -13.256818    -16.480890    14.428030    33.787346    -15.656734    11.014806    1.977852    -18.453131    0.000000    0.000000    0.000000    
15.399543    155.452988    -104.970291    2.427917    -8.005461    45.575249    -2.600863    0.858752    -2.875124    -2.872079    4.804591    -0.843823    -3.322519    2.235972    -18.301016    20.737015    4.998219    -16.671795    7.713505    4.765978    -21.493259    -25.741695    21.168533    -58.855373    -7.251445    -20.285583    -108.683098    -3.894381    -29.126131    -11.764822    -3.623333    4.890613    -2.580722    29.215155    -11.545063    48.486057    -27.726112    -14.379642    58.465927    -11.376276    -2.498555    37.674480    18.114895    -1.626998    -0.699513    -14.095475    35.236176    -18.501205    5.218576    -26.226234    41.493225    0.000000    0.000000    0.000000    -20.220343    -13.254509    -16.480196    14.445281    33.800140    -15.648711    11.029796    1.964223    -18.479666    0.000000    0.000000    0.000000    
